<svg id="visual" viewBox="0 0 900 600" width="900" height="600" xmlns="http://www.w3.org/2000/svg" xmlns:xlink="http://www.w3.org/1999/xlink" version="1.1"><path d="M0 85L13.7 95C27.3 105 54.7 125 82 124C109.3 123 136.7 101 163.8 101C191 101 218 123 245.2 130C272.3 137 299.7 129 327 141C354.3 153 381.7 185 409 189C436.3 193 463.7 169 491 155C518.3 141 545.7 137 573 143C600.3 149 627.7 165 654.8 166C682 167 709 153 736.2 151C763.3 149 790.7 159 818 163C845.3 167 872.7 165 886.3 164L900 163L900 0L886.3 0C872.7 0 845.3 0 818 0C790.7 0 763.3 0 736.2 0C709 0 682 0 654.8 0C627.7 0 600.3 0 573 0C545.7 0 518.3 0 491 0C463.7 0 436.3 0 409 0C381.7 0 354.3 0 327 0C299.7 0 272.3 0 245.2 0C218 0 191 0 163.8 0C136.7 0 109.3 0 82 0C54.7 0 27.3 0 13.7 0L0 0Z" fill="#2b57ab"></path><path d="M0 127L13.7 146C27.3 165 54.7 203 82 209C109.3 215 136.7 189 163.8 180C191 171 218 179 245.2 182C272.3 185 299.7 183 327 194C354.3 205 381.7 229 409 237C436.3 245 463.7 237 491 225C518.3 213 545.7 197 573 197C600.3 197 627.7 213 654.8 219C682 225 709 221 736.2 224C763.3 227 790.7 237 818 243C845.3 249 872.7 251 886.3 252L900 253L900 161L886.3 162C872.7 163 845.3 165 818 161C790.7 157 763.3 147 736.2 149C709 151 682 165 654.8 164C627.7 163 600.3 147 573 141C545.7 135 518.3 139 491 153C463.7 167 436.3 191 409 187C381.7 183 354.3 151 327 139C299.7 127 272.3 135 245.2 128C218 121 191 99 163.8 99C136.7 99 109.3 121 82 122C54.7 123 27.3 103 13.7 93L0 83Z" fill="#214d9f"></path><path d="M0 235L13.7 253C27.3 271 54.7 307 82 309C109.3 311 136.7 279 163.8 270C191 261 218 275 245.2 280C272.3 285 299.7 281 327 289C354.3 297 381.7 317 409 324C436.3 331 463.7 325 491 310C518.3 295 545.7 271 573 270C600.3 269 627.7 291 654.8 292C682 293 709 273 736.2 279C763.3 285 790.7 317 818 331C845.3 345 872.7 341 886.3 339L900 337L900 251L886.3 250C872.7 249 845.3 247 818 241C790.7 235 763.3 225 736.2 222C709 219 682 223 654.8 217C627.7 211 600.3 195 573 195C545.7 195 518.3 211 491 223C463.7 235 436.3 243 409 235C381.7 227 354.3 203 327 192C299.7 181 272.3 183 245.2 180C218 177 191 169 163.8 178C136.7 187 109.3 213 82 207C54.7 201 27.3 163 13.7 144L0 125Z" fill="#164393"></path><path d="M0 265L13.7 284C27.3 303 54.7 341 82 346C109.3 351 136.7 323 163.8 312C191 301 218 307 245.2 316C272.3 325 299.7 337 327 346C354.3 355 381.7 361 409 363C436.3 365 463.7 363 491 347C518.3 331 545.7 301 573 302C600.3 303 627.7 335 654.8 339C682 343 709 319 736.2 325C763.3 331 790.7 367 818 383C845.3 399 872.7 395 886.3 393L900 391L900 335L886.3 337C872.7 339 845.3 343 818 329C790.7 315 763.3 283 736.2 277C709 271 682 291 654.8 290C627.7 289 600.3 267 573 268C545.7 269 518.3 293 491 308C463.7 323 436.3 329 409 322C381.7 315 354.3 295 327 287C299.7 279 272.3 283 245.2 278C218 273 191 259 163.8 268C136.7 277 109.3 309 82 307C54.7 305 27.3 269 13.7 251L0 233Z" fill="#083988"></path><path d="M0 319L13.7 335C27.3 351 54.7 383 82 383C109.3 383 136.7 351 163.8 337C191 323 218 327 245.2 338C272.3 349 299.7 367 327 378C354.3 389 381.7 393 409 392C436.3 391 463.7 385 491 368C518.3 351 545.7 323 573 325C600.3 327 627.7 359 654.8 365C682 371 709 351 736.2 357C763.3 363 790.7 395 818 411C845.3 427 872.7 427 886.3 427L900 427L900 389L886.3 391C872.7 393 845.3 397 818 381C790.7 365 763.3 329 736.2 323C709 317 682 341 654.8 337C627.7 333 600.3 301 573 300C545.7 299 518.3 329 491 345C463.7 361 436.3 363 409 361C381.7 359 354.3 353 327 344C299.7 335 272.3 323 245.2 314C218 305 191 299 163.8 310C136.7 321 109.3 349 82 344C54.7 339 27.3 301 13.7 282L0 263Z" fill="#00327d"></path><path d="M0 367L13.7 380C27.3 393 54.7 419 82 425C109.3 431 136.7 417 163.8 413C191 409 218 415 245.2 424C272.3 433 299.7 445 327 449C354.3 453 381.7 449 409 445C436.3 441 463.7 437 491 419C518.3 401 545.7 369 573 370C600.3 371 627.7 405 654.8 416C682 427 709 415 736.2 426C763.3 437 790.7 471 818 481C845.3 491 872.7 477 886.3 470L900 463L900 425L886.3 425C872.7 425 845.3 425 818 409C790.7 393 763.3 361 736.2 355C709 349 682 369 654.8 363C627.7 357 600.3 325 573 323C545.7 321 518.3 349 491 366C463.7 383 436.3 389 409 390C381.7 391 354.3 387 327 376C299.7 365 272.3 347 245.2 336C218 325 191 321 163.8 335C136.7 349 109.3 381 82 381C54.7 381 27.3 349 13.7 333L0 317Z" fill="#002f74"></path><path d="M0 577L13.7 572C27.3 567 54.7 557 82 553C109.3 549 136.7 551 163.8 553C191 555 218 557 245.2 559C272.3 561 299.7 563 327 564C354.3 565 381.7 565 409 561C436.3 557 463.7 549 491 551C518.3 553 545.7 565 573 570C600.3 575 627.7 573 654.8 568C682 563 709 555 736.2 556C763.3 557 790.7 567 818 567C845.3 567 872.7 557 886.3 552L900 547L900 461L886.3 468C872.7 475 845.3 489 818 479C790.7 469 763.3 435 736.2 424C709 413 682 425 654.8 414C627.7 403 600.3 369 573 368C545.7 367 518.3 399 491 417C463.7 435 436.3 439 409 443C381.7 447 354.3 451 327 447C299.7 443 272.3 431 245.2 422C218 413 191 407 163.8 411C136.7 415 109.3 429 82 423C54.7 417 27.3 391 13.7 378L0 365Z" fill="#002b6a"></path><path d="M0 601L13.7 601C27.3 601 54.7 601 82 601C109.3 601 136.7 601 163.8 601C191 601 218 601 245.2 601C272.3 601 299.7 601 327 601C354.3 601 381.7 601 409 601C436.3 601 463.7 601 491 601C518.3 601 545.7 601 573 601C600.3 601 627.7 601 654.8 601C682 601 709 601 736.2 601C763.3 601 790.7 601 818 601C845.3 601 872.7 601 886.3 601L900 601L900 545L886.3 550C872.7 555 845.3 565 818 565C790.7 565 763.3 555 736.2 554C709 553 682 561 654.8 566C627.7 571 600.3 573 573 568C545.7 563 518.3 551 491 549C463.7 547 436.3 555 409 559C381.7 563 354.3 563 327 562C299.7 561 272.3 559 245.2 557C218 555 191 553 163.8 551C136.7 549 109.3 547 82 551C54.7 555 27.3 565 13.7 570L0 575Z" fill="#002861"></path></svg>